<?xml version="1.0" standalone="no"?><!DOCTYPE svg PUBLIC "-//W3C//DTD SVG 1.1//EN" "http://www.w3.org/Graphics/SVG/1.1/DTD/svg11.dtd"><svg t="1789035360241" class="icon" viewBox="0 0 1024 1024" version="1.1" xmlns="http://www.w3.org/2000/svg" p-id="15542" xmlns:xlink="http://www.w3.org/1999/xlink" width="48" height="48"><path d="M0 0m230.4 0l563.2 0q230.4 0 230.4 230.4l0 563.2q0 230.4-230.4 230.4l-563.2 0q-230.4 0-230.4-230.4l0-563.2q0-230.4 230.4-230.4Z" fill="#FF4906" p-id="15543"></path><path d="M716.8 501.76c71.68 0 133.12 61.44 133.12 143.36v102.4c0 71.68-61.44 133.12-133.12 133.12H512c-71.68 0-133.12-61.44-133.12-133.12V645.12c0-81.92 61.44-143.36 133.12-143.36h204.8z m0 71.68H512a71.68 71.68 0 0 0-61.44 71.68v102.4a71.68 71.68 0 0 0 61.44 61.44h204.8a71.68 71.68 0 0 0 61.44-61.44V645.12a71.68 71.68 0 0 0-61.44-71.68z" fill="#FFFFFF" p-id="15544"></path><path d="M430.08 102.4a184.32 184.32 0 1 1 0 368.64 184.32 184.32 0 0 1 0-368.64z m0 71.68a112.64 112.64 0 1 0 0 225.28 112.64 112.64 0 0 0 0-225.28z" fill="#FFFFFF" p-id="15545"></path><path d="M696.32 153.6a153.6 153.6 0 1 1 0 317.44 153.6 153.6 0 0 1 0-317.44z m0 71.68a81.92 81.92 0 1 0 0 174.08 81.92 81.92 0 0 0 0-174.08z" fill="#FFFFFF" p-id="15546"></path><path d="M235.52 532.48l30.72 10.24 184.32 92.16v122.88l-184.32 92.16a61.44 61.44 0 0 1-92.16-61.44V593.92a61.44 61.44 0 0 1 61.44-61.44z m20.48 81.92l-10.24 20.48v122.88a20.48 20.48 0 0 0 20.48 10.24l112.64-51.2v-40.96l-112.64-61.44a20.48 20.48 0 0 0-10.24 0z" fill="#FFFFFF" p-id="15547"></path></svg>