<?xml version="1.0" standalone="no"?><!DOCTYPE svg PUBLIC "-//W3C//DTD SVG 1.1//EN" "http://www.w3.org/Graphics/SVG/1.1/DTD/svg11.dtd"><svg t="1789035756275" class="icon" viewBox="0 0 3435 1024" version="1.1" xmlns="http://www.w3.org/2000/svg" p-id="36544" xmlns:xlink="http://www.w3.org/1999/xlink" width="161.015625" height="48"><path d="M1973.54529 480.652387c0-62.629161 57.872516-104.679226 111.946323-104.679226 65.668129 0 106.496 46.37729 106.496 120.997162v283.416774h74.421677V487.886452c0-54.106839 29.861161-111.946323 113.730065-111.946323 65.271742 0 107.420903 47.500387 107.420903 120.997161v283.416775h74.421677v-283.416775c0-117.726968-66.196645-190.893419-172.758709-190.893419-62.76129 0-117.03329 27.020387-150.891355 74.553806-22.23071-36.302452-63.620129-74.553806-139.264-74.553806-51.100903 0-94.868645 18.200774-125.522581 51.695484V312.485161h-74.421677v467.901936h74.421677v-299.701678zM747.321806 496.474839c17.837419-72.472774 80.532645-122.318452 155.416775-122.318452 74.157419 0 131.138065 48.788645 144.218838 122.351484h-299.635613z m375.312517 43.074064c-0.429419-70.788129-22.627097-130.675613-64.181678-173.188129-39.077161-40.035097-93.745548-62.100645-153.930322-62.100645-136.324129 0-235.288774 101.67329-235.288775 241.697032 0 141.741419 96.024774 240.739097 233.505033 240.739097 91.102968 0 162.08929-39.275355 205.262451-113.564903l3.699613-6.375226-63.752258-41.026064-4.096 6.936774c-33.659871 57.410065-78.484645 84.166194-141.113806 84.166193-87.238194 0-154.260645-65.304774-158.885162-153.17058h378.780904v-24.113549zM427.800774 382.315355h213.058065V312.485161H353.445161V781.212903h74.388645zM2703.525161 496.474839c17.837419-72.472774 80.532645-122.318452 155.416774-122.318452 74.157419 0 131.138065 48.788645 144.218839 122.351484h-299.635613z m155.416774 290.221419c91.102968 0 162.08929-39.275355 205.22942-113.564903l3.732645-6.375226-63.752258-41.026064-4.096 6.936774c-33.659871 57.410065-78.484645 84.166194-141.113807 84.166193-87.238194 0-154.260645-65.304774-158.885161-153.17058h378.780903v-24.113549c-0.462452-70.788129-22.660129-130.675613-64.214709-173.188129-39.077161-40.035097-93.712516-62.100645-153.897291-62.100645-136.324129 0-235.288774 101.67329-235.288774 241.697032 0 141.741419 96.024774 240.739097 233.505032 240.739097zM1728.181677 780.354065h74.421678V174.245161h-74.421678zM1250.832516 547.740903c0-95.331097 68.376774-167.242323 159.116387-167.242322 94.042839 0 157.266581 67.220645 157.266581 167.242322 0 99.493161-63.223742 166.350452-157.266581 166.350452-90.706581 0-159.116387-71.481806-159.116387-166.350452m162.716903 240.772129c54.338065 0 106.033548-18.068645 144.615226-50.076903v42.809806h73.496774V313.344H1558.131613v43.041032c-39.242323-32.140387-90.970839-50.275097-144.615226-50.275097-66.493935 0-127.075097 24.741161-170.578581 69.665033-42.908903 44.362323-66.526968 105.438968-66.526967 171.965935 0 66.526968 23.618065 127.438452 66.56 171.569549 43.404387 44.593548 103.985548 69.202581 170.545548 69.20258" fill="#111111" p-id="36545"></path></svg>