<?xml version="1.0" standalone="no"?><!DOCTYPE svg PUBLIC "-//W3C//DTD SVG 1.1//EN" "http://www.w3.org/Graphics/SVG/1.1/DTD/svg11.dtd"><svg t="1789035498070" class="icon" viewBox="0 0 1024 1024" version="1.1" xmlns="http://www.w3.org/2000/svg" p-id="22401" xmlns:xlink="http://www.w3.org/1999/xlink" width="48" height="48"><path d="M511.9 959.6c-247.3 0-447.8-200.5-447.8-447.8S264.6 63.9 511.9 63.9s447.8 200.5 447.8 447.8-200.5 447.9-447.8 447.9zM354.4 333.8l-2 61.5h-47c-26.3 0-48.3 21.3-49.3 47.6-0.9 26.3 19.6 47.6 45.9 47.6h47l-3.6 99.2c-3.6 104.3 75.9 188.9 180.3 188.9H577c26.3 0 48.3-21.3 49.2-47.6 0.9-26.3-19.6-47.6-45.9-47.6H529c-51.8 0-90.2-42-88.4-93.8l3.6-99.2h132.6c26.3 0 48.3-21.3 49.2-47.6 0.9-26.3-19.6-47.6-45.9-47.6H447.5l2-61.5c0.9-26.3-19.6-47.6-45.9-47.6-26.3 0.2-48.3 21.5-49.2 47.7z m328.2 25.7c-13.1-15.1-33.3-21.8-52.8-17.6l-1.7 0.4v0.1c-8.2 2.7-13.1 11.2-11.3 19.7 2 9.2 11.1 15.1 20.2 13.1l0.5-0.1c7.2-1.3 14.5 1.2 19.3 6.7 4.8 5.5 6.3 13.2 3.9 20.1l1.5 0.5h-1.7c-2.8 8.8 1.7 18.1 10.3 21.3 0.7 0.3 1.5 0.5 2.2 0.7 8 1.8 16.2-2.4 19.4-10.3l0.2-0.5c6.8-18.5 2.9-39.2-10-54.1z m48.2-44.7c-26.5-30.1-67.2-43.5-106.5-34.8-9.2 2-15 11.2-12.9 20.3 1 4.4 3.6 8.2 7.5 10.7 3.8 2.5 8.4 3.3 12.9 2.3 27.1-6 55.2 3.2 73.5 24 18.3 20.8 23.7 50 14.2 76-1.5 4.3-1.3 8.9 0.6 13s5.3 7.3 9.6 8.8c0.7 0.3 1.4 0.4 2.1 0.6 8.2 1.8 16.7-2.7 19.7-10.8 13.7-37.8 5.8-79.9-20.7-110.1z" fill="#FFFFFF" p-id="22402"></path><path d="M511.9 959.6c-247.3 0-447.8-200.5-447.8-447.8S264.6 63.9 511.9 63.9s447.8 200.5 447.8 447.8-200.5 447.9-447.8 447.9zM354.4 333.8l-2 61.5h-47c-26.3 0-48.3 21.3-49.3 47.6-0.9 26.3 19.6 47.6 45.9 47.6h47l-3.6 99.2c-3.6 104.3 75.9 188.9 180.3 188.9H577c26.3 0 48.3-21.3 49.2-47.6 0.9-26.3-19.6-47.6-45.9-47.6H529c-51.8 0-90.2-42-88.4-93.8l3.6-99.2h132.6c26.3 0 48.3-21.3 49.2-47.6 0.9-26.3-19.6-47.6-45.9-47.6H447.5l2-61.5c0.9-26.3-19.6-47.6-45.9-47.6-26.3 0.2-48.3 21.5-49.2 47.7z m328.2 25.7c-13.1-15.1-33.3-21.8-52.8-17.6l-1.7 0.4v0.1c-8.2 2.7-13.1 11.2-11.3 19.7 2 9.2 11.1 15.1 20.2 13.1l0.5-0.1c7.2-1.3 14.5 1.2 19.3 6.7 4.8 5.5 6.3 13.2 3.9 20.1l1.5 0.5h-1.7c-2.8 8.8 1.7 18.1 10.3 21.3 0.7 0.3 1.5 0.5 2.2 0.7 8 1.8 16.2-2.4 19.4-10.3l0.2-0.5c6.8-18.5 2.9-39.2-10-54.1z m48.2-44.7c-26.5-30.1-67.2-43.5-106.5-34.8-9.2 2-15 11.2-12.9 20.3 1 4.4 3.6 8.2 7.5 10.7 3.8 2.5 8.4 3.3 12.9 2.3 27.1-6 55.2 3.2 73.5 24 18.3 20.8 23.7 50 14.2 76-1.5 4.3-1.3 8.9 0.6 13s5.3 7.3 9.6 8.8c0.7 0.3 1.4 0.4 2.1 0.6 8.2 1.8 16.7-2.7 19.7-10.8 13.7-37.8 5.8-79.9-20.7-110.1z" fill="#FF4800" p-id="22403"></path></svg>